<svg width="1200" height="630" viewBox="0 0 1200 630" fill="none" xmlns="http://www.w3.org/2000/svg" role="img" aria-label="0G Receipts cover">
  <rect width="1200" height="630" fill="#0b0c0e"/>
  <!-- faint grid -->
  <g stroke="#ffffff" stroke-opacity="0.04" stroke-width="1">
    <path d="M0 90 H1200 M0 180 H1200 M0 270 H1200 M0 360 H1200 M0 450 H1200 M0 540 H1200"/>
    <path d="M120 0 V630 M240 0 V630 M360 0 V630 M480 0 V630 M600 0 V630 M720 0 V630 M840 0 V630 M960 0 V630 M1080 0 V630"/>
  </g>
  <!-- glow -->
  <circle cx="120" cy="120" r="240" fill="#ceff1a" fill-opacity="0.06"/>

  <!-- mark -->
  <g transform="translate(92 158) scale(0.62)">
    <rect width="512" height="512" rx="116" fill="#0b0c0e"/>
    <rect x="0.5" y="0.5" width="511" height="511" rx="115.5" stroke="#23272d"/>
    <rect x="150" y="104" width="168" height="250" rx="16" fill="#ceff1a"/>
    <g fill="#0b0c0e">
      <circle cx="164" cy="354" r="13"/><circle cx="190" cy="354" r="13"/><circle cx="216" cy="354" r="13"/><circle cx="242" cy="354" r="13"/><circle cx="268" cy="354" r="13"/><circle cx="294" cy="354" r="13"/><circle cx="318" cy="354" r="13"/>
    </g>
    <g fill="#0b0c0e">
      <rect x="176" y="132" width="74" height="16" rx="5"/>
      <rect x="176" y="166" width="100" height="9" rx="4.5"/>
      <rect x="176" y="185" width="80" height="9" rx="4.5"/>
      <rect x="176" y="298" width="6" height="36"/><rect x="188" y="298" width="3" height="36"/><rect x="197" y="298" width="8" height="36"/><rect x="211" y="298" width="4" height="36"/><rect x="221" y="298" width="6" height="36"/><rect x="233" y="298" width="3" height="36"/><rect x="241" y="298" width="7" height="36"/>
    </g>
    <g transform="rotate(-12 338 322)">
      <circle cx="338" cy="322" r="58" fill="#0b0c0e"/>
      <circle cx="338" cy="322" r="58" fill="none" stroke="#ff4326" stroke-width="11"/>
      <circle cx="338" cy="322" r="46" fill="none" stroke="#ff4326" stroke-width="3.5"/>
      <path d="M314 322 l16 18 l34 -40" fill="none" stroke="#ff4326" stroke-width="14" stroke-linecap="round" stroke-linejoin="round"/>
    </g>
  </g>

  <!-- wordmark -->
  <g font-family="'Space Grotesk','Helvetica Neue',Arial,sans-serif">
    <text x="470" y="285" font-size="86" font-weight="700" letter-spacing="-3" fill="#f4f0e6">0G RECEIPTS</text>
    <rect x="470" y="312" width="92" height="10" fill="#ceff1a"/>
    <text x="470" y="372" font-size="34" font-weight="600" fill="#f4f0e6">An AI track record you cannot fake.</text>
    <text x="470" y="418" font-size="27" fill="#8b9097">Every pick sealed on 0G before kickoff.</text>
    <text x="470" y="488" font-size="20" font-weight="700" letter-spacing="3" fill="#ceff1a">SEALED INFERENCE  ·  0G STORAGE  ·  0G CHAIN</text>
  </g>
</svg>
